<?xml version="1.0" encoding="utf-8"?>
<!-- Generator: Adobe Illustrator 23.1.0, SVG Export Plug-In . SVG Version: 6.00 Build 0)  -->
<svg version="1.1" id="Layer_1" xmlns="http://www.w3.org/2000/svg" xmlns:xlink="http://www.w3.org/1999/xlink" x="0px" y="0px"
	 viewBox="0 0 48 48" style="enable-background:new 0 0 48 48;" xml:space="preserve">
<style type="text/css">
	.st0{fill:url(#SVGID_1_);}
	.st1{fill:url(#SVGID_2_);}
</style>
<linearGradient id="SVGID_1_" gradientUnits="userSpaceOnUse" x1="88.9194" y1="20.6667" x2="88.9194" y2="-15.3335" gradientTransform="matrix(0.75 0 0 -0.75 -42.5 29.75)">
	<stop  offset="0" style="stop-color:#1A6DFF"/>
	<stop  offset="1" style="stop-color:#C822FF"/>
</linearGradient>
<path class="st0" d="M17.7,41.3c-4.2,0-7.9-0.8-10.2-2.2c-2.1-1.3-3.7-3.3-4.7-6.1c-0.9-2.5-1.4-5-1.3-7.5c0-0.6,0.2-1.1,0.6-1.5
	c0.4-0.4,1-0.6,1.5-0.6h28.9c0.2,0,1.1-0.2,2-0.5c-0.7-1.4-0.8-3-0.4-4.7c0.2-1,0.7-2,1.2-2.9l0.4-0.6c0.2-0.3,0.7-0.4,1-0.2
	l0.6,0.4c0.3,0.2,2.6,1.6,3.4,4.5c0.4,0,0.8-0.1,1.3-0.1c2.5,0,3.8,0.9,4.1,1.1c0,0,0,0,0,0l0.4,0.3c0.2,0.2,0.3,0.5,0.2,0.8
	L46.7,22c-0.3,0.9-0.8,1.6-1.5,2.2c-0.9,0.9-2,2-5.3,2c-0.7,1.7-2.2,5-4.6,7.8c-1.4,1.6-3.1,3-5,4.1c-2.3,1.3-4.7,2.2-7.3,2.6
	C21.1,41.1,19.5,41.3,17.7,41.3z M36.7,16L36.7,16c-0.5,0.7-0.8,1.6-1,2.4c-0.4,1.6-0.2,3,0.6,4.3c0.1,0.2,0.1,0.4,0.1,0.6
	c-0.1,0.2-0.2,0.4-0.4,0.5c-1.3,0.7-3,1-3.4,1l-29,0c-0.2,0-0.3,0.1-0.5,0.2C3.1,25.1,3,25.2,3,25.4c0,2.4,0.4,4.6,1.2,7
	c0.9,2.5,2.3,4.3,4.1,5.3c2.1,1.3,5.5,2,9.4,2c1.6,0,3.2-0.1,4.9-0.5c2.4-0.4,4.7-1.3,6.8-2.5c1.7-1,3.3-2.3,4.6-3.8
	c2.6-3,4.1-6.7,4.5-7.8c0.1-0.3,0.4-0.5,0.7-0.5c0,0,0,0,0.1,0c3.1,0,3.9-0.8,4.7-1.6c0.5-0.5,0.9-1.1,1.1-1.7l0,0
	c0,0-1-0.8-3.1-0.8c-0.6,0-1.2,0.1-1.7,0.1c-0.2,0-0.4,0-0.6-0.1c-0.2-0.1-0.3-0.3-0.3-0.5C39.1,17.4,36.8,16.1,36.7,16L36.7,16z"/>
<linearGradient id="SVGID_2_" gradientUnits="userSpaceOnUse" x1="84.4442" y1="30.6667" x2="84.4442" y2="-11.3333" gradientTransform="matrix(0.75 0 0 -0.75 -42.5 29.75)">
	<stop  offset="0" style="stop-color:#6DC7FF"/>
	<stop  offset="1" style="stop-color:#E6ABFF"/>
</linearGradient>
<path class="st1" d="M17.7,38.3c-3.5,0-6.7-0.7-8.5-1.8c-1.5-0.9-2.7-2.5-3.5-4.6c-0.7-1.9-1.1-3.7-1.1-5.6l28.2,0
	c0.6,0,2.5-0.3,4.1-1.2l0.4-0.2c-0.5,1.2-1.9,4.6-4.2,7.2c-1.2,1.4-2.6,2.5-4.2,3.5c-2,1.1-4.1,1.9-6.3,2.3
	C20.7,38.1,19.3,38.3,17.7,38.3L17.7,38.3z M9.8,21v-3c0-0.4-0.3-0.8-0.8-0.8H6c-0.4,0-0.8,0.3-0.8,0.8v3c0,0.4,0.3,0.8,0.8,0.8h3
	C9.4,21.8,9.8,21.4,9.8,21z M15,21v-3c0-0.4-0.3-0.8-0.8-0.8h-3c-0.4,0-0.8,0.3-0.8,0.8v3c0,0.4,0.3,0.8,0.8,0.8h3
	C14.7,21.8,15,21.4,15,21z M20.3,21v-3c0-0.4-0.3-0.8-0.8-0.8h-3c-0.4,0-0.8,0.3-0.8,0.8v3c0,0.4,0.3,0.8,0.8,0.8h3
	C19.9,21.8,20.3,21.4,20.3,21z M25.5,21v-3c0-0.4-0.3-0.8-0.8-0.8h-3c-0.4,0-0.8,0.3-0.8,0.8v3c0,0.4,0.3,0.8,0.8,0.8h3
	C25.2,21.8,25.5,21.4,25.5,21z M15,15.8v-3c0-0.4-0.3-0.8-0.8-0.8h-3c-0.4,0-0.8,0.3-0.8,0.8v3c0,0.4,0.3,0.8,0.8,0.8h3
	C14.7,16.5,15,16.2,15,15.8z M20.3,15.8v-3c0-0.4-0.3-0.8-0.8-0.8h-3c-0.4,0-0.8,0.3-0.8,0.8v3c0,0.4,0.3,0.8,0.8,0.8h3
	C19.9,16.5,20.3,16.2,20.3,15.8z M25.5,15.8v-3c0-0.4-0.3-0.8-0.8-0.8h-3c-0.4,0-0.8,0.3-0.8,0.8v3c0,0.4,0.3,0.8,0.8,0.8h3
	C25.2,16.5,25.5,16.2,25.5,15.8z M25.5,10.5v-3c0-0.4-0.3-0.8-0.8-0.8h-3c-0.4,0-0.8,0.3-0.8,0.8v3c0,0.4,0.3,0.8,0.8,0.8h3
	C25.2,11.3,25.5,10.9,25.5,10.5z M30.8,21v-3c0-0.4-0.3-0.8-0.8-0.8h-3c-0.4,0-0.8,0.3-0.8,0.8v3c0,0.4,0.3,0.8,0.8,0.8h3
	C30.4,21.8,30.8,21.4,30.8,21z"/>
</svg>
